<svg xmlns="http://www.w3.org/2000/svg" xmlns:xlink="http://www.w3.org/1999/xlink" width="500" zoomAndPan="magnify" viewBox="0 0 375 374.999991" height="500" preserveAspectRatio="xMidYMid meet" version="1.0"><path fill="#209642" d="M 187.34375 0.0585938 C 83.984375 0.0585938 -0.105469 84.148438 -0.105469 187.507812 C -0.105469 290.875 83.984375 374.964844 187.34375 374.964844 C 290.707031 374.964844 374.800781 290.871094 374.800781 187.507812 C 374.800781 84.148438 290.707031 0.0585938 187.34375 0.0585938 Z M 187.34375 356.476562 C 94.179688 356.476562 18.382812 280.675781 18.382812 187.507812 C 18.382812 94.34375 94.179688 18.546875 187.34375 18.546875 C 280.511719 18.546875 356.3125 94.34375 356.3125 187.507812 C 356.3125 280.675781 280.511719 356.476562 187.34375 356.476562 Z M 187.34375 356.476562 " fill-opacity="1" fill-rule="nonzero"/><path fill="#209642" d="M 237.078125 268.324219 L 237.078125 226.554688 L 224.988281 226.554688 L 195 179.792969 L 183.167969 198.246094 L 201.324219 226.554688 L 190.34375 226.554688 L 177.679688 206.808594 L 152.179688 167.046875 L 114.011719 226.554688 L 104.570312 226.554688 L 104.570312 116.03125 L 269.933594 116.03125 L 269.933594 196.34375 L 290.0625 196.34375 L 290.0625 104.765625 C 290.0625 100.039062 286.234375 96.207031 281.503906 96.207031 L 93.195312 96.207031 C 88.464844 96.207031 84.636719 100.039062 84.636719 104.765625 L 84.636719 270.25 C 84.636719 274.976562 88.464844 278.804688 93.195312 278.804688 L 264.914062 278.804688 L 264.914062 268.324219 Z M 237.078125 268.324219 " fill-opacity="1" fill-rule="nonzero"/><path fill="#209642" d="M 296.730469 236.503906 L 296.730469 208.667969 L 277.238281 208.667969 L 277.238281 236.503906 L 249.402344 236.503906 L 249.402344 256 L 277.238281 256 L 277.238281 283.828125 L 296.730469 283.828125 L 296.730469 256 L 324.5625 256 L 324.5625 236.503906 Z M 296.730469 236.503906 " fill-opacity="1" fill-rule="nonzero"/><path fill="#209642" d="M 255.382812 153.109375 C 255.382812 153.6875 255.355469 154.269531 255.296875 154.84375 C 255.238281 155.421875 255.15625 155.996094 255.042969 156.5625 C 254.929688 157.132812 254.789062 157.695312 254.621094 158.25 C 254.449219 158.804688 254.253906 159.351562 254.035156 159.886719 C 253.8125 160.421875 253.5625 160.945312 253.289062 161.457031 C 253.015625 161.96875 252.71875 162.464844 252.398438 162.949219 C 252.074219 163.429688 251.730469 163.898438 251.363281 164.34375 C 250.992188 164.792969 250.605469 165.222656 250.195312 165.632812 C 249.785156 166.042969 249.355469 166.433594 248.90625 166.800781 C 248.457031 167.167969 247.992188 167.511719 247.511719 167.835938 C 247.027344 168.15625 246.53125 168.457031 246.019531 168.730469 C 245.507812 169.003906 244.984375 169.25 244.449219 169.472656 C 243.914062 169.695312 243.367188 169.890625 242.8125 170.058594 C 242.257812 170.226562 241.695312 170.367188 241.125 170.480469 C 240.558594 170.59375 239.984375 170.679688 239.40625 170.734375 C 238.828125 170.792969 238.25 170.820312 237.671875 170.820312 C 237.089844 170.820312 236.511719 170.792969 235.933594 170.734375 C 235.355469 170.679688 234.785156 170.59375 234.214844 170.480469 C 233.644531 170.367188 233.085938 170.226562 232.527344 170.058594 C 231.972656 169.890625 231.429688 169.695312 230.890625 169.472656 C 230.355469 169.25 229.832031 169.003906 229.320312 168.730469 C 228.808594 168.457031 228.3125 168.15625 227.832031 167.835938 C 227.347656 167.511719 226.882812 167.167969 226.433594 166.800781 C 225.984375 166.433594 225.558594 166.042969 225.148438 165.632812 C 224.738281 165.222656 224.347656 164.792969 223.980469 164.34375 C 223.609375 163.898438 223.265625 163.429688 222.945312 162.949219 C 222.621094 162.464844 222.324219 161.96875 222.050781 161.457031 C 221.777344 160.945312 221.527344 160.421875 221.308594 159.886719 C 221.085938 159.351562 220.890625 158.804688 220.722656 158.25 C 220.554688 157.695312 220.414062 157.132812 220.300781 156.5625 C 220.1875 155.996094 220.101562 155.421875 220.042969 154.84375 C 219.988281 154.269531 219.957031 153.6875 219.957031 153.109375 C 219.957031 152.527344 219.988281 151.949219 220.042969 151.371094 C 220.101562 150.796875 220.1875 150.222656 220.300781 149.652344 C 220.414062 149.085938 220.554688 148.523438 220.722656 147.96875 C 220.890625 147.414062 221.085938 146.867188 221.308594 146.332031 C 221.527344 145.796875 221.777344 145.273438 222.050781 144.761719 C 222.324219 144.25 222.621094 143.75 222.945312 143.269531 C 223.265625 142.785156 223.609375 142.320312 223.980469 141.871094 C 224.347656 141.425781 224.738281 140.996094 225.148438 140.585938 C 225.558594 140.175781 225.984375 139.785156 226.433594 139.417969 C 226.882812 139.050781 227.347656 138.703125 227.832031 138.382812 C 228.3125 138.058594 228.808594 137.761719 229.320312 137.488281 C 229.832031 137.214844 230.355469 136.96875 230.890625 136.746094 C 231.429688 136.523438 231.972656 136.328125 232.527344 136.160156 C 233.085938 135.992188 233.644531 135.851562 234.214844 135.738281 C 234.785156 135.625 235.355469 135.539062 235.933594 135.484375 C 236.511719 135.425781 237.089844 135.398438 237.671875 135.398438 C 238.25 135.398438 238.828125 135.425781 239.40625 135.484375 C 239.984375 135.539062 240.558594 135.625 241.125 135.738281 C 241.695312 135.851562 242.257812 135.992188 242.8125 136.160156 C 243.367188 136.328125 243.914062 136.523438 244.449219 136.746094 C 244.984375 136.96875 245.507812 137.214844 246.019531 137.488281 C 246.53125 137.761719 247.027344 138.058594 247.511719 138.382812 C 247.992188 138.703125 248.457031 139.050781 248.90625 139.417969 C 249.355469 139.785156 249.785156 140.175781 250.195312 140.585938 C 250.605469 140.996094 250.992188 141.425781 251.363281 141.871094 C 251.730469 142.320312 252.074219 142.785156 252.398438 143.269531 C 252.71875 143.75 253.015625 144.25 253.289062 144.761719 C 253.5625 145.273438 253.8125 145.796875 254.035156 146.332031 C 254.253906 146.867188 254.449219 147.414062 254.621094 147.96875 C 254.789062 148.523438 254.929688 149.085938 255.042969 149.652344 C 255.15625 150.222656 255.238281 150.796875 255.296875 151.371094 C 255.355469 151.949219 255.382812 152.527344 255.382812 153.109375 Z M 255.382812 153.109375 " fill-opacity="1" fill-rule="nonzero"/></svg>